<mxfile host="app.diagrams.net" agent="Mozilla/5.0 (Macintosh; Intel Mac OS X 10_15_7) AppleWebKit/537.36 (KHTML, like Gecko) Chrome/131.0.0.0 Safari/537.36" version="25.0.3">
  <diagram name="Page-1" id="2YBvvXClWsGukQMizWep">
    <mxGraphModel dx="977" dy="1758" grid="1" gridSize="10" guides="1" tooltips="1" connect="1" arrows="1" fold="1" page="1" pageScale="1" pageWidth="850" pageHeight="1100" math="0" shadow="0">
      <root>
        <mxCell id="0" />
        <mxCell id="1" parent="0" />
        <mxCell id="CObYJEAy56xA2G8EUnc1-1" value="API" style="shape=umlLifeline;perimeter=lifelinePerimeter;whiteSpace=wrap;html=1;container=1;dropTarget=0;collapsible=0;recursiveResize=0;outlineConnect=0;portConstraint=eastwest;newEdgeStyle={&quot;edgeStyle&quot;:&quot;elbowEdgeStyle&quot;,&quot;elbow&quot;:&quot;vertical&quot;,&quot;curved&quot;:0,&quot;rounded&quot;:0};" parent="1" vertex="1">
          <mxGeometry x="260" y="40" width="100" height="560" as="geometry" />
        </mxCell>
        <mxCell id="vXKSp53bt_YOnUHlEbE3-1" value="" style="html=1;points=[[0,0,0,0,5],[0,1,0,0,-5],[1,0,0,0,5],[1,1,0,0,-5]];perimeter=orthogonalPerimeter;outlineConnect=0;targetShapes=umlLifeline;portConstraint=eastwest;newEdgeStyle={&quot;curved&quot;:0,&quot;rounded&quot;:0};" parent="CObYJEAy56xA2G8EUnc1-1" vertex="1">
          <mxGeometry x="45" y="80" width="10" height="440" as="geometry" />
        </mxCell>
        <mxCell id="CObYJEAy56xA2G8EUnc1-6" value="" style="shape=umlLifeline;perimeter=lifelinePerimeter;whiteSpace=wrap;html=1;container=1;dropTarget=0;collapsible=0;recursiveResize=0;outlineConnect=0;portConstraint=eastwest;newEdgeStyle={&quot;curved&quot;:0,&quot;rounded&quot;:0};participant=umlActor;" parent="1" vertex="1">
          <mxGeometry x="121" y="40" width="20" height="560" as="geometry" />
        </mxCell>
        <mxCell id="CObYJEAy56xA2G8EUnc1-7" value="Company" style="text;html=1;align=center;verticalAlign=middle;resizable=0;points=[];autosize=1;strokeColor=none;fillColor=none;" parent="1" vertex="1">
          <mxGeometry x="60" y="50" width="70" height="30" as="geometry" />
        </mxCell>
        <mxCell id="CObYJEAy56xA2G8EUnc1-9" value="postInternship(internshipData)" style="text;html=1;align=center;verticalAlign=middle;resizable=0;points=[];autosize=1;strokeColor=none;fillColor=none;" parent="1" vertex="1">
          <mxGeometry x="130" y="92" width="180" height="30" as="geometry" />
        </mxCell>
        <mxCell id="CObYJEAy56xA2G8EUnc1-14" value="alternative" style="shape=umlFrame;whiteSpace=wrap;html=1;pointerEvents=0;width=80;height=30;" parent="1" vertex="1">
          <mxGeometry x="95" y="200" width="795" height="410" as="geometry" />
        </mxCell>
        <mxCell id="CObYJEAy56xA2G8EUnc1-15" value="&lt;b&gt;Interaction&lt;/b&gt; Post a new internship" style="shape=umlFrame;whiteSpace=wrap;html=1;pointerEvents=0;width=210;height=30;" parent="1" vertex="1">
          <mxGeometry x="60" y="-20" width="860" height="670" as="geometry" />
        </mxCell>
        <mxCell id="CObYJEAy56xA2G8EUnc1-17" value="" style="endArrow=none;dashed=1;html=1;rounded=0;exitX=0.014;exitY=0.49;exitDx=0;exitDy=0;exitPerimeter=0;entryX=1;entryY=0.78;entryDx=0;entryDy=0;entryPerimeter=0;" parent="1" edge="1" target="CObYJEAy56xA2G8EUnc1-14">
          <mxGeometry width="50" height="50" relative="1" as="geometry">
            <mxPoint x="99.99999999999996" y="520" as="sourcePoint" />
            <mxPoint x="452.7999999999999" y="521" as="targetPoint" />
          </mxGeometry>
        </mxCell>
        <mxCell id="CObYJEAy56xA2G8EUnc1-19" value="else" style="text;html=1;align=center;verticalAlign=middle;resizable=0;points=[];autosize=1;strokeColor=none;fillColor=none;" parent="1" vertex="1">
          <mxGeometry x="106" y="490" width="50" height="30" as="geometry" />
        </mxCell>
        <mxCell id="CObYJEAy56xA2G8EUnc1-20" value="if checkInternshipData(internshipData)" style="text;html=1;align=center;verticalAlign=middle;resizable=0;points=[];autosize=1;strokeColor=none;fillColor=none;labelBackgroundColor=default;" parent="1" vertex="1">
          <mxGeometry x="95" y="230" width="230" height="30" as="geometry" />
        </mxCell>
        <mxCell id="CObYJEAy56xA2G8EUnc1-23" value="redirectToInternshipPage(message)" style="html=1;verticalAlign=bottom;endArrow=open;dashed=1;endSize=8;curved=0;rounded=0;" parent="1" edge="1">
          <mxGeometry x="-0.0028" relative="1" as="geometry">
            <mxPoint x="310" y="356" as="sourcePoint" />
            <mxPoint x="130.44736842105272" y="355.9999999999998" as="targetPoint" />
            <mxPoint as="offset" />
          </mxGeometry>
        </mxCell>
        <mxCell id="CObYJEAy56xA2G8EUnc1-24" value="redirectToInternshipCreationPage(message)" style="html=1;verticalAlign=bottom;endArrow=open;dashed=1;endSize=8;curved=0;rounded=0;" parent="1" edge="1">
          <mxGeometry y="-4" relative="1" as="geometry">
            <mxPoint x="309.5" y="570.43" as="sourcePoint" />
            <mxPoint x="130" y="570.43" as="targetPoint" />
            <mxPoint as="offset" />
          </mxGeometry>
        </mxCell>
        <mxCell id="NZ4PiwcvvcB-_aY-qffc-1" value="loop" style="shape=umlFrame;whiteSpace=wrap;html=1;pointerEvents=0;" parent="1" vertex="1">
          <mxGeometry x="350" y="420" width="450" height="87" as="geometry" />
        </mxCell>
        <mxCell id="NZ4PiwcvvcB-_aY-qffc-2" value="" style="shape=umlLifeline;perimeter=lifelinePerimeter;whiteSpace=wrap;html=1;container=1;dropTarget=0;collapsible=0;recursiveResize=0;outlineConnect=0;portConstraint=eastwest;newEdgeStyle={&quot;curved&quot;:0,&quot;rounded&quot;:0};participant=umlActor;" parent="1" vertex="1">
          <mxGeometry x="770" y="35" width="20" height="565" as="geometry" />
        </mxCell>
        <mxCell id="NZ4PiwcvvcB-_aY-qffc-5" value="" style="edgeStyle=elbowEdgeStyle;fontSize=12;html=1;endArrow=blockThin;endFill=1;rounded=0;" parent="1" edge="1" target="YP4vQDsvqG0cvO2UIJ0I-17" source="CObYJEAy56xA2G8EUnc1-6">
          <mxGeometry width="160" relative="1" as="geometry">
            <mxPoint x="130" y="115" as="sourcePoint" />
            <mxPoint x="301.0799999999999" y="118.99000000000001" as="targetPoint" />
            <Array as="points">
              <mxPoint x="160" y="119" />
            </Array>
          </mxGeometry>
        </mxCell>
        <mxCell id="NZ4PiwcvvcB-_aY-qffc-13" value="Student" style="text;html=1;align=center;verticalAlign=middle;resizable=0;points=[];autosize=1;strokeColor=none;fillColor=none;" parent="1" vertex="1">
          <mxGeometry x="790" y="35" width="60" height="30" as="geometry" />
        </mxCell>
        <mxCell id="YP4vQDsvqG0cvO2UIJ0I-2" value="S&amp;amp;C" style="shape=umlLifeline;perimeter=lifelinePerimeter;whiteSpace=wrap;html=1;container=1;dropTarget=0;collapsible=0;recursiveResize=0;outlineConnect=0;portConstraint=eastwest;newEdgeStyle={&quot;edgeStyle&quot;:&quot;elbowEdgeStyle&quot;,&quot;elbow&quot;:&quot;vertical&quot;,&quot;curved&quot;:0,&quot;rounded&quot;:0};" vertex="1" parent="1">
          <mxGeometry x="415" y="40" width="100" height="560" as="geometry" />
        </mxCell>
        <mxCell id="YP4vQDsvqG0cvO2UIJ0I-3" value="" style="html=1;points=[[0,0,0,0,5],[0,1,0,0,-5],[1,0,0,0,5],[1,1,0,0,-5]];perimeter=orthogonalPerimeter;outlineConnect=0;targetShapes=umlLifeline;portConstraint=eastwest;newEdgeStyle={&quot;curved&quot;:0,&quot;rounded&quot;:0};" vertex="1" parent="YP4vQDsvqG0cvO2UIJ0I-2">
          <mxGeometry x="45" y="94" width="10" height="416" as="geometry" />
        </mxCell>
        <mxCell id="YP4vQDsvqG0cvO2UIJ0I-4" value="checkInternshipData&lt;div&gt;(internshipData)&lt;/div&gt;" style="html=1;align=left;spacingLeft=2;endArrow=block;rounded=0;edgeStyle=orthogonalEdgeStyle;curved=0;rounded=0;" edge="1" parent="YP4vQDsvqG0cvO2UIJ0I-2">
          <mxGeometry x="0.176" relative="1" as="geometry">
            <mxPoint x="55" y="97" as="sourcePoint" />
            <Array as="points">
              <mxPoint x="80" y="97" />
              <mxPoint x="80" y="117" />
            </Array>
            <mxPoint as="offset" />
            <mxPoint x="55.000000000000114" y="116.99999999999994" as="targetPoint" />
          </mxGeometry>
        </mxCell>
        <mxCell id="YP4vQDsvqG0cvO2UIJ0I-5" value="" style="html=1;points=[[0,0,0,0,5],[0,1,0,0,-5],[1,0,0,0,5],[1,1,0,0,-5]];perimeter=orthogonalPerimeter;outlineConnect=0;targetShapes=umlLifeline;portConstraint=eastwest;newEdgeStyle={&quot;curved&quot;:0,&quot;rounded&quot;:0};" vertex="1" parent="YP4vQDsvqG0cvO2UIJ0I-2">
          <mxGeometry x="50" y="330" width="10" height="31" as="geometry" />
        </mxCell>
        <mxCell id="YP4vQDsvqG0cvO2UIJ0I-18" value="" style="html=1;points=[[0,0,0,0,5],[0,1,0,0,-5],[1,0,0,0,5],[1,1,0,0,-5]];perimeter=orthogonalPerimeter;outlineConnect=0;targetShapes=umlLifeline;portConstraint=eastwest;newEdgeStyle={&quot;curved&quot;:0,&quot;rounded&quot;:0};" vertex="1" parent="YP4vQDsvqG0cvO2UIJ0I-2">
          <mxGeometry x="50" y="100" width="10" height="31" as="geometry" />
        </mxCell>
        <mxCell id="NZ4PiwcvvcB-_aY-qffc-10" value="" style="html=1;points=[[0,0,0,0,5],[0,1,0,0,-5],[1,0,0,0,5],[1,1,0,0,-5]];perimeter=orthogonalPerimeter;outlineConnect=0;targetShapes=umlLifeline;portConstraint=eastwest;newEdgeStyle={&quot;curved&quot;:0,&quot;rounded&quot;:0};" parent="YP4vQDsvqG0cvO2UIJ0I-2" vertex="1">
          <mxGeometry x="50" y="330" width="10" height="31" as="geometry" />
        </mxCell>
        <mxCell id="NZ4PiwcvvcB-_aY-qffc-11" value="findMatchingStudents&lt;div&gt;(InternshipData)&lt;/div&gt;" style="html=1;align=left;spacingLeft=2;endArrow=block;rounded=0;edgeStyle=orthogonalEdgeStyle;curved=0;rounded=0;" parent="YP4vQDsvqG0cvO2UIJ0I-2" edge="1">
          <mxGeometry x="0.1765" relative="1" as="geometry">
            <mxPoint x="55" y="310" as="sourcePoint" />
            <Array as="points">
              <mxPoint x="55" y="318" />
              <mxPoint x="85" y="318" />
              <mxPoint x="85" y="340" />
            </Array>
            <mxPoint x="60" y="340" as="targetPoint" />
            <mxPoint as="offset" />
          </mxGeometry>
        </mxCell>
        <mxCell id="YP4vQDsvqG0cvO2UIJ0I-6" value="S&amp;amp;C" style="shape=umlLifeline;perimeter=lifelinePerimeter;whiteSpace=wrap;html=1;container=1;dropTarget=0;collapsible=0;recursiveResize=0;outlineConnect=0;portConstraint=eastwest;newEdgeStyle={&quot;edgeStyle&quot;:&quot;elbowEdgeStyle&quot;,&quot;elbow&quot;:&quot;vertical&quot;,&quot;curved&quot;:0,&quot;rounded&quot;:0};" vertex="1" parent="1">
          <mxGeometry x="574" y="35" width="100" height="565" as="geometry" />
        </mxCell>
        <mxCell id="YP4vQDsvqG0cvO2UIJ0I-7" value="" style="html=1;points=[[0,0,0,0,5],[0,1,0,0,-5],[1,0,0,0,5],[1,1,0,0,-5]];perimeter=orthogonalPerimeter;outlineConnect=0;targetShapes=umlLifeline;portConstraint=eastwest;newEdgeStyle={&quot;curved&quot;:0,&quot;rounded&quot;:0};" vertex="1" parent="YP4vQDsvqG0cvO2UIJ0I-6">
          <mxGeometry x="45" y="230" width="10" height="290" as="geometry" />
        </mxCell>
        <mxCell id="CObYJEAy56xA2G8EUnc1-21" value="" style="html=1;points=[[0,0,0,0,5],[0,1,0,0,-5],[1,0,0,0,5],[1,1,0,0,-5]];perimeter=orthogonalPerimeter;outlineConnect=0;targetShapes=umlLifeline;portConstraint=eastwest;newEdgeStyle={&quot;curved&quot;:0,&quot;rounded&quot;:0};direction=west;" parent="YP4vQDsvqG0cvO2UIJ0I-6" vertex="1">
          <mxGeometry x="50" y="245" width="10" height="31" as="geometry" />
        </mxCell>
        <mxCell id="CObYJEAy56xA2G8EUnc1-22" value="writeToDb(internshipData)" style="html=1;align=left;spacingLeft=2;endArrow=block;rounded=0;edgeStyle=orthogonalEdgeStyle;curved=0;rounded=0;" parent="YP4vQDsvqG0cvO2UIJ0I-6" edge="1">
          <mxGeometry x="-0.7412" y="-8" relative="1" as="geometry">
            <mxPoint x="55" y="237" as="sourcePoint" />
            <Array as="points">
              <mxPoint x="85" y="267" />
            </Array>
            <mxPoint x="60" y="267.00000000000006" as="targetPoint" />
            <mxPoint as="offset" />
          </mxGeometry>
        </mxCell>
        <mxCell id="YP4vQDsvqG0cvO2UIJ0I-10" value="API" style="shape=module;align=left;spacingLeft=20;align=center;verticalAlign=top;whiteSpace=wrap;html=1;" vertex="1" parent="1">
          <mxGeometry x="250" y="30" width="120" height="50" as="geometry" />
        </mxCell>
        <mxCell id="YP4vQDsvqG0cvO2UIJ0I-11" value="InternshipManager" style="shape=module;align=left;spacingLeft=20;align=center;verticalAlign=top;whiteSpace=wrap;html=1;" vertex="1" parent="1">
          <mxGeometry x="397.5" y="30" width="135" height="50" as="geometry" />
        </mxCell>
        <mxCell id="YP4vQDsvqG0cvO2UIJ0I-12" value="" style="edgeStyle=elbowEdgeStyle;fontSize=12;html=1;endArrow=blockThin;endFill=1;rounded=0;" edge="1" parent="1">
          <mxGeometry width="160" relative="1" as="geometry">
            <mxPoint x="310" y="130" as="sourcePoint" />
            <mxPoint x="460" y="130" as="targetPoint" />
            <Array as="points">
              <mxPoint x="460" y="130" />
            </Array>
          </mxGeometry>
        </mxCell>
        <mxCell id="YP4vQDsvqG0cvO2UIJ0I-13" value="" style="edgeStyle=elbowEdgeStyle;fontSize=12;html=1;endArrow=blockThin;endFill=1;rounded=0;exitX=0.006;exitY=0.729;exitDx=0;exitDy=0;exitPerimeter=0;" edge="1" parent="1">
          <mxGeometry width="160" relative="1" as="geometry">
            <mxPoint x="470.0000000000001" y="260" as="sourcePoint" />
            <mxPoint x="624.22" y="260.13" as="targetPoint" />
            <Array as="points">
              <mxPoint x="614.22" y="260.13" />
            </Array>
          </mxGeometry>
        </mxCell>
        <mxCell id="YP4vQDsvqG0cvO2UIJ0I-14" value="Database" style="shape=module;align=left;spacingLeft=20;align=center;verticalAlign=top;whiteSpace=wrap;html=1;" vertex="1" parent="1">
          <mxGeometry x="564" y="30" width="120" height="50" as="geometry" />
        </mxCell>
        <mxCell id="YP4vQDsvqG0cvO2UIJ0I-16" value="" style="edgeStyle=elbowEdgeStyle;fontSize=12;html=1;endArrow=blockThin;endFill=1;rounded=0;" edge="1" parent="1">
          <mxGeometry width="160" relative="1" as="geometry">
            <mxPoint x="630" y="470.64" as="sourcePoint" />
            <mxPoint x="780" y="470.64" as="targetPoint" />
            <Array as="points">
              <mxPoint x="770" y="470.64" />
            </Array>
          </mxGeometry>
        </mxCell>
        <mxCell id="YP4vQDsvqG0cvO2UIJ0I-17" value="postInternship(internshipData)" style="text;html=1;align=center;verticalAlign=middle;resizable=0;points=[];autosize=1;strokeColor=none;fillColor=none;" vertex="1" parent="1">
          <mxGeometry x="310" y="102" width="180" height="30" as="geometry" />
        </mxCell>
        <mxCell id="YP4vQDsvqG0cvO2UIJ0I-23" value="write(internshipData)" style="text;html=1;align=center;verticalAlign=middle;resizable=0;points=[];autosize=1;strokeColor=none;fillColor=none;" vertex="1" parent="1">
          <mxGeometry x="465" y="238" width="130" height="30" as="geometry" />
        </mxCell>
        <mxCell id="YP4vQDsvqG0cvO2UIJ0I-24" value="&lt;span style=&quot;font-size: 11px; background-color: rgb(255, 255, 255);&quot;&gt;sendNotificationToStudent(student)&lt;/span&gt;" style="text;html=1;align=center;verticalAlign=middle;resizable=0;points=[];autosize=1;strokeColor=none;fillColor=none;" vertex="1" parent="1">
          <mxGeometry x="622" y="444" width="190" height="30" as="geometry" />
        </mxCell>
        <mxCell id="YP4vQDsvqG0cvO2UIJ0I-25" value="ok" style="html=1;verticalAlign=bottom;endArrow=open;dashed=1;endSize=8;curved=0;rounded=0;" edge="1" parent="1">
          <mxGeometry x="-0.0028" relative="1" as="geometry">
            <mxPoint x="620" y="319" as="sourcePoint" />
            <mxPoint x="470" y="319" as="targetPoint" />
            <mxPoint as="offset" />
          </mxGeometry>
        </mxCell>
        <mxCell id="YP4vQDsvqG0cvO2UIJ0I-26" value="InternshipPage" style="html=1;verticalAlign=bottom;endArrow=open;dashed=1;endSize=8;curved=0;rounded=0;" edge="1" parent="1">
          <mxGeometry x="-0.0028" relative="1" as="geometry">
            <mxPoint x="465" y="335" as="sourcePoint" />
            <mxPoint x="315" y="335" as="targetPoint" />
            <mxPoint as="offset" />
          </mxGeometry>
        </mxCell>
        <mxCell id="YP4vQDsvqG0cvO2UIJ0I-27" value="InternshipCreationPage" style="html=1;verticalAlign=bottom;endArrow=open;dashed=1;endSize=8;curved=0;rounded=0;" edge="1" parent="1">
          <mxGeometry x="-0.0028" relative="1" as="geometry">
            <mxPoint x="463" y="560" as="sourcePoint" />
            <mxPoint x="313" y="560" as="targetPoint" />
            <mxPoint as="offset" />
          </mxGeometry>
        </mxCell>
        <mxCell id="YP4vQDsvqG0cvO2UIJ0I-28" value="error" style="html=1;verticalAlign=bottom;endArrow=open;dashed=1;endSize=8;curved=0;rounded=0;" edge="1" parent="1">
          <mxGeometry x="-0.0028" relative="1" as="geometry">
            <mxPoint x="620" y="549" as="sourcePoint" />
            <mxPoint x="470" y="549" as="targetPoint" />
            <mxPoint as="offset" />
          </mxGeometry>
        </mxCell>
        <mxCell id="NZ4PiwcvvcB-_aY-qffc-12" value="for each Student" style="text;whiteSpace=wrap;html=1;" parent="1" vertex="1">
          <mxGeometry x="361" y="448.5" width="100" height="30" as="geometry" />
        </mxCell>
        <mxCell id="YP4vQDsvqG0cvO2UIJ0I-29" value="&lt;span style=&quot;font-size: 11px; background-color: rgb(255, 255, 255);&quot;&gt;triggerNotification(student)&lt;/span&gt;" style="text;html=1;align=center;verticalAlign=middle;resizable=0;points=[];autosize=1;strokeColor=none;fillColor=none;" vertex="1" parent="1">
          <mxGeometry x="472" y="425" width="150" height="30" as="geometry" />
        </mxCell>
        <mxCell id="YP4vQDsvqG0cvO2UIJ0I-30" value="" style="endArrow=classic;html=1;rounded=0;entryX=1.02;entryY=1.141;entryDx=0;entryDy=0;entryPerimeter=0;" edge="1" parent="1">
          <mxGeometry width="50" height="50" relative="1" as="geometry">
            <mxPoint x="470.3888888888889" y="454.23" as="sourcePoint" />
            <mxPoint x="618.2" y="454.23" as="targetPoint" />
          </mxGeometry>
        </mxCell>
      </root>
    </mxGraphModel>
  </diagram>
</mxfile>
